# xmcd
#
# Track frame offsets:
#	182
#	21492
#	45925
#	62080
#	92777
#	112737
#	135357
#	155952
#	172765
#	187402
#	197002
#	206222
#	229455
#	249025
#	270835
#	281950
#	294612
#	314482
#
# Disc length: 4325 seconds
#
# Revision: 9
# Processed by: cddbd v1.5.1PL2 Copyright (c) Steve Scherf et al.
# Submitted via: audiograbber 1.82.02
#
DISCID=0a10e312
DTITLE=Various Artist - The Rough Guide To English Roots Music
DYEAR=1998
DGENRE=Ethnic
TTITLE0=Hank Dogs - Lucky Break
TTITLE1=Eliza Carthy and The Kings of Calicutt - Trip
TTITLE2=Oysterband - Sail On By
TTITLE3=Waterson:Carthy - Claudy Banks
TTITLE4=Rory McLeod - Be My Rambling Women
TTITLE5=Billy Pigg - Gypsy's Lullaby-The Hawk-Memories-Coates Hall
TTITLE6=Martin Carthy and Dave Swarbrick - The Begging Song
TTITLE7=John Kirkpatrick - A Lord Of Steam And Iron
TTITLE8=Coope, Boyes and Simpson - Falling Slowly
TTITLE9=Louise Fuller - Hopping Down In Kent
TTITLE10=The Watersons - Country Life
TTITLE11=Barely Works - Byker Hill
TTITLE12=Edward II - Brilliant Pebbles
TTITLE13=Albion Band - Yellow Dress
TTITLE14=Walter Bulwer, Billy Cooper, Dasiy Bulwer, Reg Hall, Mervyn Plunkett, 
TTITLE14=Russell Wortley - Red Wing Polka
TTITLE15=Harry Cox - Bold Fisherman
TTITLE16=Savourna Stevenson, June Tabor, Danny Thompson - The Baker
TTITLE17=Billy Bragg - A New England
EXTD=
EXTT0=
EXTT1=
EXTT2=
EXTT3=
EXTT4=
EXTT5=
EXTT6=
EXTT7=
EXTT8=
EXTT9=
EXTT10=
EXTT11=
EXTT12=
EXTT13=
EXTT14=
EXTT15=
EXTT16=
EXTT17=
PLAYORDER=
